%TF.GenerationSoftware,KiCad,Pcbnew,9.0.2*%
%TF.CreationDate,2025-06-18T20:19:25+05:30*%
%TF.ProjectId,redesign diya,72656465-7369-4676-9e20-646979612e6b,rev?*%
%TF.SameCoordinates,Original*%
%TF.FileFunction,Copper,L1,Top*%
%TF.FilePolarity,Positive*%
%FSLAX46Y46*%
G04 Gerber Fmt 4.6, Leading zero omitted, Abs format (unit mm)*
G04 Created by KiCad (PCBNEW 9.0.2) date 2025-06-18 20:19:25*
%MOMM*%
%LPD*%
G01*
G04 APERTURE LIST*
G04 Aperture macros list*
%AMRoundRect*
0 Rectangle with rounded corners*
0 $1 Rounding radius*
0 $2 $3 $4 $5 $6 $7 $8 $9 X,Y pos of 4 corners*
0 Add a 4 corners polygon primitive as box body*
4,1,4,$2,$3,$4,$5,$6,$7,$8,$9,$2,$3,0*
0 Add four circle primitives for the rounded corners*
1,1,$1+$1,$2,$3*
1,1,$1+$1,$4,$5*
1,1,$1+$1,$6,$7*
1,1,$1+$1,$8,$9*
0 Add four rect primitives between the rounded corners*
20,1,$1+$1,$2,$3,$4,$5,0*
20,1,$1+$1,$4,$5,$6,$7,0*
20,1,$1+$1,$6,$7,$8,$9,0*
20,1,$1+$1,$8,$9,$2,$3,0*%
G04 Aperture macros list end*
%TA.AperFunction,EtchedComponent*%
%ADD10C,0.000000*%
%TD*%
%TA.AperFunction,ComponentPad*%
%ADD11RoundRect,0.250000X0.550000X-0.550000X0.550000X0.550000X-0.550000X0.550000X-0.550000X-0.550000X0*%
%TD*%
%TA.AperFunction,ComponentPad*%
%ADD12C,1.600000*%
%TD*%
%TA.AperFunction,ComponentPad*%
%ADD13R,1.700000X1.700000*%
%TD*%
%TA.AperFunction,ComponentPad*%
%ADD14C,1.700000*%
%TD*%
%TA.AperFunction,ComponentPad*%
%ADD15O,2.200000X3.500000*%
%TD*%
%TA.AperFunction,ComponentPad*%
%ADD16R,1.500000X2.500000*%
%TD*%
%TA.AperFunction,ComponentPad*%
%ADD17O,1.500000X2.500000*%
%TD*%
%TA.AperFunction,ComponentPad*%
%ADD18R,1.800000X1.800000*%
%TD*%
%TA.AperFunction,ComponentPad*%
%ADD19C,1.800000*%
%TD*%
%TA.AperFunction,ComponentPad*%
%ADD20R,2.100000X2.100000*%
%TD*%
%TA.AperFunction,ComponentPad*%
%ADD21C,2.100000*%
%TD*%
%TA.AperFunction,ComponentPad*%
%ADD22C,1.500000*%
%TD*%
%TA.AperFunction,Conductor*%
%ADD23C,0.200000*%
%TD*%
%TA.AperFunction,Conductor*%
%ADD24C,0.600000*%
%TD*%
G04 APERTURE END LIST*
D10*
%TA.AperFunction,EtchedComponent*%
%TO.C,Ankur*%
G36*
X120144444Y-65594444D02*
G01*
X120144444Y-65666666D01*
X120077777Y-65666666D01*
X120011111Y-65666666D01*
X120011111Y-66155555D01*
X120011111Y-66644444D01*
X119933333Y-66644444D01*
X119855555Y-66644444D01*
X119855555Y-66155555D01*
X119855555Y-65666666D01*
X119788888Y-65666666D01*
X119722222Y-65666666D01*
X119722222Y-65594444D01*
X119722222Y-65522222D01*
X119933333Y-65522222D01*
X120144444Y-65522222D01*
X120144444Y-65594444D01*
G37*
%TD.AperFunction*%
%TA.AperFunction,EtchedComponent*%
G36*
X118683333Y-62057826D02*
G01*
X118753314Y-62062559D01*
X118805979Y-62071563D01*
X118843736Y-62087671D01*
X118868991Y-62113717D01*
X118884153Y-62152534D01*
X118891628Y-62206956D01*
X118893825Y-62279817D01*
X118893816Y-62305555D01*
X118892038Y-62386366D01*
X118886011Y-62447831D01*
X118873503Y-62492735D01*
X118852280Y-62523861D01*
X118820109Y-62543994D01*
X118774756Y-62555918D01*
X118713990Y-62562419D01*
X118686516Y-62564040D01*
X118578588Y-62569598D01*
X118575405Y-62311234D01*
X118572222Y-62052870D01*
X118683333Y-62057826D01*
G37*
%TD.AperFunction*%
%TA.AperFunction,EtchedComponent*%
G36*
X118879607Y-65594421D02*
G01*
X118875881Y-65666666D01*
X118776829Y-65666666D01*
X118677777Y-65666666D01*
X118677777Y-65833333D01*
X118677777Y-66000000D01*
X118777777Y-66000000D01*
X118877777Y-66000000D01*
X118877777Y-66066666D01*
X118877777Y-66133333D01*
X118777777Y-66133333D01*
X118677777Y-66133333D01*
X118677777Y-66322222D01*
X118677777Y-66511111D01*
X118783333Y-66511111D01*
X118888888Y-66511111D01*
X118888888Y-66577777D01*
X118888888Y-66644444D01*
X118700000Y-66644444D01*
X118511111Y-66644444D01*
X118511111Y-66083333D01*
X118511111Y-65522222D01*
X118697222Y-65522198D01*
X118883333Y-65522175D01*
X118879607Y-65594421D01*
G37*
%TD.AperFunction*%
%TA.AperFunction,EtchedComponent*%
G36*
X118266666Y-65988500D02*
G01*
X118266563Y-66105854D01*
X118266206Y-66203141D01*
X118265520Y-66282516D01*
X118264432Y-66346134D01*
X118262869Y-66396150D01*
X118260756Y-66434718D01*
X118258021Y-66463994D01*
X118254588Y-66486132D01*
X118250386Y-66503288D01*
X118248910Y-66507945D01*
X118217207Y-66571819D01*
X118171467Y-66619510D01*
X118114033Y-66649853D01*
X118047245Y-66661685D01*
X117973444Y-66653842D01*
X117961510Y-66650786D01*
X117904602Y-66624478D01*
X117858330Y-66582214D01*
X117827595Y-66528805D01*
X117823096Y-66514938D01*
X117818401Y-66486898D01*
X117814574Y-66442863D01*
X117812027Y-66389053D01*
X117811173Y-66336111D01*
X117811111Y-66200000D01*
X117888888Y-66200000D01*
X117966666Y-66200000D01*
X117966666Y-66322579D01*
X117968445Y-66397435D01*
X117974269Y-66452546D01*
X117984869Y-66490136D01*
X118000974Y-66512433D01*
X118023315Y-66521663D01*
X118032136Y-66522222D01*
X118047844Y-66521937D01*
X118060920Y-66519836D01*
X118071604Y-66514054D01*
X118080138Y-66502722D01*
X118086764Y-66483974D01*
X118091724Y-66455943D01*
X118095258Y-66416762D01*
X118097608Y-66364564D01*
X118099016Y-66297481D01*
X118099723Y-66213647D01*
X118099970Y-66111195D01*
X118100000Y-65997527D01*
X118100000Y-65522222D01*
X118183333Y-65522222D01*
X118266666Y-65522222D01*
X118266666Y-65988500D01*
G37*
%TD.AperFunction*%
%TA.AperFunction,EtchedComponent*%
G36*
X115967589Y-65522548D02*
G01*
X116014386Y-65523898D01*
X116048219Y-65526825D01*
X116073713Y-65531887D01*
X116095494Y-65539636D01*
X116111534Y-65547222D01*
X116148581Y-65571200D01*
X116175589Y-65603725D01*
X116188888Y-65627777D01*
X116199379Y-65650055D01*
X116206838Y-65671057D01*
X116211779Y-65695099D01*
X116214716Y-65726496D01*
X116216164Y-65769566D01*
X116216636Y-65828624D01*
X116216666Y-65861111D01*
X116216466Y-65928625D01*
X116215521Y-65978220D01*
X116213320Y-66014200D01*
X116209349Y-66040867D01*
X116203093Y-66062522D01*
X116194040Y-66083469D01*
X116188888Y-66093866D01*
X116163651Y-66137081D01*
X116136237Y-66166166D01*
X116101363Y-66184121D01*
X116053746Y-66193944D01*
X116005811Y-66197816D01*
X115911111Y-66202786D01*
X115911111Y-66423615D01*
X115911111Y-66644444D01*
X115827777Y-66644444D01*
X115744444Y-66644444D01*
X115744444Y-66083333D01*
X115744444Y-66066666D01*
X115911111Y-66066666D01*
X115958333Y-66066496D01*
X115990607Y-66064580D01*
X116013828Y-66060000D01*
X116017781Y-66058163D01*
X116035785Y-66034840D01*
X116050087Y-65994323D01*
X116060075Y-65941426D01*
X116065139Y-65880960D01*
X116064668Y-65817739D01*
X116058052Y-65756575D01*
X116056889Y-65750000D01*
X116042684Y-65698172D01*
X116021200Y-65665242D01*
X115989655Y-65648345D01*
X115954324Y-65644444D01*
X115911111Y-65644444D01*
X115911111Y-65855555D01*
X115911111Y-66066666D01*
X115744444Y-66066666D01*
X115744444Y-65855555D01*
X115744444Y-65522222D01*
X115903201Y-65522222D01*
X115967589Y-65522548D01*
G37*
%TD.AperFunction*%
%TA.AperFunction,EtchedComponent*%
G36*
X116604782Y-65524252D02*
G01*
X116673552Y-65525814D01*
X116723849Y-65527753D01*
X116759423Y-65530540D01*
X116784023Y-65534649D01*
X116801400Y-65540549D01*
X116815303Y-65548714D01*
X116818671Y-65551161D01*
X116848001Y-65576647D01*
X116868979Y-65605246D01*
X116883087Y-65641300D01*
X116891808Y-65689151D01*
X116896623Y-65753141D01*
X116897744Y-65782825D01*
X116898500Y-65860424D01*
X116894728Y-65919550D01*
X116885575Y-65963646D01*
X116870184Y-65996154D01*
X116847702Y-66020520D01*
X116836709Y-66028638D01*
X116801197Y-66052534D01*
X116827841Y-66064674D01*
X116853052Y-66081985D01*
X116871547Y-66109587D01*
X116884286Y-66150471D01*
X116892229Y-66207627D01*
X116896136Y-66277497D01*
X116898343Y-66345602D01*
X116900851Y-66421625D01*
X116903263Y-66493575D01*
X116904335Y-66525000D01*
X116908439Y-66644444D01*
X116827396Y-66644444D01*
X116746354Y-66644444D01*
X116742621Y-66405847D01*
X116741277Y-66326882D01*
X116739836Y-66267083D01*
X116737976Y-66223394D01*
X116735377Y-66192759D01*
X116731720Y-66172123D01*
X116726684Y-66158431D01*
X116719949Y-66148626D01*
X116715133Y-66143511D01*
X116683620Y-66124462D01*
X116640133Y-66113997D01*
X116588888Y-66108221D01*
X116588888Y-66376332D01*
X116588888Y-66644444D01*
X116505555Y-66644444D01*
X116422222Y-66644444D01*
X116422222Y-66082585D01*
X116422222Y-65988888D01*
X116588888Y-65988888D01*
X116638888Y-65988888D01*
X116683086Y-65983398D01*
X116710120Y-65967657D01*
X116724445Y-65941765D01*
X116735162Y-65899838D01*
X116741496Y-65847881D01*
X116742676Y-65791899D01*
X116738864Y-65744264D01*
X116727123Y-65694591D01*
X116706422Y-65663387D01*
X116673841Y-65647735D01*
X116638888Y-65644444D01*
X116588888Y-65644444D01*
X116588888Y-65816666D01*
X116588888Y-65988888D01*
X116422222Y-65988888D01*
X116422222Y-65816666D01*
X116422222Y-65520726D01*
X116604782Y-65524252D01*
G37*
%TD.AperFunction*%
%TA.AperFunction,EtchedComponent*%
G36*
X119407086Y-65518404D02*
G01*
X119463768Y-65540865D01*
X119508357Y-65579367D01*
X119541427Y-65634785D01*
X119563556Y-65707991D01*
X119575319Y-65799858D01*
X119577693Y-65875000D01*
X119577777Y-65955555D01*
X119494444Y-65955555D01*
X119411111Y-65955555D01*
X119411111Y-65839612D01*
X119409820Y-65772404D01*
X119405316Y-65723888D01*
X119396650Y-65690651D01*
X119382872Y-65669278D01*
X119363034Y-65656355D01*
X119359810Y-65655061D01*
X119324867Y-65651965D01*
X119294756Y-65668914D01*
X119272505Y-65703803D01*
X119267279Y-65719339D01*
X119264039Y-65742491D01*
X119261339Y-65784291D01*
X119259186Y-65841173D01*
X119257583Y-65909568D01*
X119256535Y-65985911D01*
X119256047Y-66066633D01*
X119256125Y-66148167D01*
X119256771Y-66226946D01*
X119257992Y-66299403D01*
X119259791Y-66361971D01*
X119262174Y-66411082D01*
X119265144Y-66443169D01*
X119266321Y-66449702D01*
X119283251Y-66490471D01*
X119309036Y-66515380D01*
X119339650Y-66522751D01*
X119371067Y-66510908D01*
X119384389Y-66498869D01*
X119393401Y-66486005D01*
X119399751Y-66467941D01*
X119404055Y-66440555D01*
X119406926Y-66399726D01*
X119408976Y-66341333D01*
X119409216Y-66332202D01*
X119412877Y-66188888D01*
X119496802Y-66188888D01*
X119580727Y-66188888D01*
X119574939Y-66330555D01*
X119568220Y-66424973D01*
X119555660Y-66499857D01*
X119535795Y-66557458D01*
X119507160Y-66600029D01*
X119468288Y-66629823D01*
X119417716Y-66649091D01*
X119361111Y-66659281D01*
X119326602Y-66661525D01*
X119298296Y-66660308D01*
X119294444Y-66659625D01*
X119264646Y-66653101D01*
X119246942Y-66649285D01*
X119211739Y-66632775D01*
X119174786Y-66601011D01*
X119141488Y-66559775D01*
X119117250Y-66514850D01*
X119114551Y-66507638D01*
X119108929Y-66489457D01*
X119104448Y-66468910D01*
X119100983Y-66443373D01*
X119098407Y-66410222D01*
X119096595Y-66366835D01*
X119095420Y-66310588D01*
X119094756Y-66238858D01*
X119094478Y-66149020D01*
X119094444Y-66088888D01*
X119094771Y-65974191D01*
X119095784Y-65880295D01*
X119097532Y-65805790D01*
X119100063Y-65749265D01*
X119103423Y-65709308D01*
X119107663Y-65684509D01*
X119108309Y-65682233D01*
X119138883Y-65613050D01*
X119182946Y-65561495D01*
X119240174Y-65527810D01*
X119310245Y-65512238D01*
X119337735Y-65511111D01*
X119407086Y-65518404D01*
G37*
%TD.AperFunction*%
%TA.AperFunction,EtchedComponent*%
G36*
X117437497Y-65515618D02*
G01*
X117488130Y-65530670D01*
X117529940Y-65558560D01*
X117551998Y-65580979D01*
X117567248Y-65599948D01*
X117579727Y-65620309D01*
X117589681Y-65644359D01*
X117597355Y-65674397D01*
X117602994Y-65712721D01*
X117606843Y-65761630D01*
X117609148Y-65823422D01*
X117610154Y-65900396D01*
X117610107Y-65994849D01*
X117609252Y-66109081D01*
X117609180Y-66116666D01*
X117608167Y-66218335D01*
X117607166Y-66300299D01*
X117606003Y-66365076D01*
X117604502Y-66415184D01*
X117602488Y-66453140D01*
X117599786Y-66481461D01*
X117596219Y-66502665D01*
X117591614Y-66519268D01*
X117585794Y-66533788D01*
X117579170Y-66547565D01*
X117542731Y-66597122D01*
X117491212Y-66633939D01*
X117428830Y-66656304D01*
X117359799Y-66662500D01*
X117311111Y-66656583D01*
X117246713Y-66634363D01*
X117198185Y-66597501D01*
X117173527Y-66563827D01*
X117159442Y-66536969D01*
X117148064Y-66508248D01*
X117139155Y-66475129D01*
X117132478Y-66435077D01*
X117127795Y-66385557D01*
X117124868Y-66324035D01*
X117123459Y-66247975D01*
X117123330Y-66154843D01*
X117124209Y-66046464D01*
X117289940Y-66046464D01*
X117290121Y-66127686D01*
X117290744Y-66207230D01*
X117291799Y-66281734D01*
X117293278Y-66347839D01*
X117295172Y-66402183D01*
X117297474Y-66441405D01*
X117300174Y-66462144D01*
X117300500Y-66463165D01*
X117322610Y-66499422D01*
X117353018Y-66519150D01*
X117386852Y-66520823D01*
X117419244Y-66502916D01*
X117421231Y-66500990D01*
X117431020Y-66487626D01*
X117438912Y-66467723D01*
X117445050Y-66439212D01*
X117449575Y-66400022D01*
X117452629Y-66348084D01*
X117454354Y-66281328D01*
X117454891Y-66197686D01*
X117454383Y-66095087D01*
X117453678Y-66027260D01*
X117452439Y-65934107D01*
X117451058Y-65860569D01*
X117449359Y-65804036D01*
X117447168Y-65761899D01*
X117444309Y-65731551D01*
X117440610Y-65710382D01*
X117435894Y-65695785D01*
X117430851Y-65686436D01*
X117402331Y-65656688D01*
X117370593Y-65648646D01*
X117336637Y-65662547D01*
X117335040Y-65663717D01*
X117311940Y-65687452D01*
X117298594Y-65712112D01*
X117295949Y-65732821D01*
X117293797Y-65772017D01*
X117292128Y-65826341D01*
X117290935Y-65892431D01*
X117290208Y-65966925D01*
X117289940Y-66046464D01*
X117124209Y-66046464D01*
X117124244Y-66042104D01*
X117124280Y-66038888D01*
X117125506Y-65940103D01*
X117126855Y-65860956D01*
X117128487Y-65798862D01*
X117130556Y-65751238D01*
X117133222Y-65715499D01*
X117136640Y-65689060D01*
X117140968Y-65669338D01*
X117146363Y-65653748D01*
X117147916Y-65650151D01*
X117185129Y-65588395D01*
X117233840Y-65545145D01*
X117295277Y-65519638D01*
X117370668Y-65511113D01*
X117372136Y-65511111D01*
X117437497Y-65515618D01*
G37*
%TD.AperFunction*%
%TA.AperFunction,EtchedComponent*%
G36*
X119179729Y-60834109D02*
G01*
X119387712Y-60834195D01*
X119593420Y-60834346D01*
X119795562Y-60834564D01*
X119992848Y-60834847D01*
X120183990Y-60835197D01*
X120367698Y-60835613D01*
X120542683Y-60836094D01*
X120707655Y-60836642D01*
X120861325Y-60837256D01*
X121002403Y-60837936D01*
X121129600Y-60838683D01*
X121241627Y-60839495D01*
X121337194Y-60840373D01*
X121415013Y-60841318D01*
X121473792Y-60842328D01*
X121512244Y-60843405D01*
X121522222Y-60843889D01*
X121701293Y-60861602D01*
X121866978Y-60892499D01*
X122024725Y-60937973D01*
X122179984Y-60999419D01*
X122239836Y-61027428D01*
X122417613Y-61126086D01*
X122581665Y-61241736D01*
X122731097Y-61373224D01*
X122865009Y-61519395D01*
X122982504Y-61679096D01*
X123082686Y-61851172D01*
X123164657Y-62034468D01*
X123227519Y-62227830D01*
X123251759Y-62329125D01*
X123262341Y-62381181D01*
X123270144Y-62426143D01*
X123275582Y-62469103D01*
X123279071Y-62515151D01*
X123281025Y-62569377D01*
X123281861Y-62636873D01*
X123282003Y-62700000D01*
X123281731Y-62781162D01*
X123280645Y-62845167D01*
X123278336Y-62897075D01*
X123274398Y-62941946D01*
X123268422Y-62984842D01*
X123260001Y-63030822D01*
X123252382Y-63067795D01*
X123199697Y-63265170D01*
X123127652Y-63453198D01*
X123037285Y-63630690D01*
X122929630Y-63796462D01*
X122805723Y-63949327D01*
X122666601Y-64088099D01*
X122513300Y-64211591D01*
X122346855Y-64318617D01*
X122168303Y-64407991D01*
X122037251Y-64459212D01*
X121964294Y-64483166D01*
X121892136Y-64503565D01*
X121818306Y-64520672D01*
X121740327Y-64534755D01*
X121655727Y-64546077D01*
X121562030Y-64554904D01*
X121456764Y-64561503D01*
X121337452Y-64566138D01*
X121201622Y-64569075D01*
X121046799Y-64570578D01*
X120997235Y-64570787D01*
X120899368Y-64571273D01*
X120808770Y-64572064D01*
X120727769Y-64573114D01*
X120658698Y-64574376D01*
X120603886Y-64575805D01*
X120565664Y-64577355D01*
X120546362Y-64578981D01*
X120544457Y-64579671D01*
X120552130Y-64590015D01*
X120572627Y-64611243D01*
X120602144Y-64639497D01*
X120615616Y-64651893D01*
X120750990Y-64789574D01*
X120868019Y-64938685D01*
X120966445Y-65097745D01*
X121046012Y-65265273D01*
X121106460Y-65439789D01*
X121147533Y-65619811D01*
X121168973Y-65803858D01*
X121170522Y-65990450D01*
X121151921Y-66178106D01*
X121112914Y-66365344D01*
X121053243Y-66550684D01*
X120976460Y-66725086D01*
X120880774Y-66892143D01*
X120768110Y-67046726D01*
X120640069Y-67187431D01*
X120498253Y-67312855D01*
X120344262Y-67421594D01*
X120179698Y-67512246D01*
X120006162Y-67583407D01*
X119991478Y-67588369D01*
X119933069Y-67607037D01*
X119877261Y-67622956D01*
X119821720Y-67636339D01*
X119764113Y-67647398D01*
X119702106Y-67656345D01*
X119633365Y-67663392D01*
X119555556Y-67668752D01*
X119466347Y-67672637D01*
X119363402Y-67675258D01*
X119244389Y-67676828D01*
X119106974Y-67677560D01*
X119009182Y-67677686D01*
X118490586Y-67677777D01*
X118485936Y-68208333D01*
X118484786Y-68332473D01*
X118483638Y-68436630D01*
X118482393Y-68523042D01*
X118480954Y-68593948D01*
X118479223Y-68651586D01*
X118477103Y-68698194D01*
X118474496Y-68736012D01*
X118471304Y-68767277D01*
X118467431Y-68794228D01*
X118462779Y-68819105D01*
X118458459Y-68838888D01*
X118401056Y-69044580D01*
X118325856Y-69238568D01*
X118233702Y-69420012D01*
X118125437Y-69588068D01*
X118001905Y-69741897D01*
X117863949Y-69880655D01*
X117712413Y-70003502D01*
X117548141Y-70109595D01*
X117371975Y-70198094D01*
X117184759Y-70268156D01*
X116987336Y-70318940D01*
X116972222Y-70321933D01*
X116896520Y-70333591D01*
X116807006Y-70342566D01*
X116710358Y-70348590D01*
X116613258Y-70351396D01*
X116522385Y-70350718D01*
X116444420Y-70346290D01*
X116422222Y-70343905D01*
X116216209Y-70307876D01*
X116021017Y-70252446D01*
X115836524Y-70177558D01*
X115662610Y-70083151D01*
X115499153Y-69969169D01*
X115346033Y-69835553D01*
X115321908Y-69811770D01*
X115195264Y-69674235D01*
X115086731Y-69532836D01*
X114995193Y-69385147D01*
X114919535Y-69228746D01*
X114858642Y-69061208D01*
X114811397Y-68880110D01*
X114776686Y-68683026D01*
X114766795Y-68605555D01*
X114765392Y-68587258D01*
X114764102Y-68557175D01*
X114762922Y-68514747D01*
X114761851Y-68459414D01*
X114760887Y-68390616D01*
X114760029Y-68307794D01*
X114759276Y-68210389D01*
X114758625Y-68097840D01*
X114758075Y-67969588D01*
X114757625Y-67825074D01*
X114757273Y-67663737D01*
X114757017Y-67485019D01*
X114756856Y-67288359D01*
X114756789Y-67073199D01*
X114756813Y-66838978D01*
X114756858Y-66740075D01*
X115145091Y-66740075D01*
X115145153Y-66920921D01*
X115145256Y-67108727D01*
X115146069Y-68438888D01*
X115177212Y-68316666D01*
X115195274Y-68253001D01*
X115217825Y-68183858D01*
X115241234Y-68120044D01*
X115252498Y-68092650D01*
X115328485Y-67944642D01*
X115421924Y-67809772D01*
X115531779Y-67688848D01*
X115657013Y-67582678D01*
X115796592Y-67492069D01*
X115949479Y-67417830D01*
X116114639Y-67360768D01*
X116225594Y-67333782D01*
X116256431Y-67327659D01*
X116287294Y-67322119D01*
X116319390Y-67317134D01*
X116353925Y-67312675D01*
X116392104Y-67308711D01*
X116435133Y-67305215D01*
X116484217Y-67302156D01*
X116540562Y-67299507D01*
X116605373Y-67297237D01*
X116679856Y-67295317D01*
X116765216Y-67293720D01*
X116862659Y-67292414D01*
X116973392Y-67291372D01*
X117098618Y-67290564D01*
X117239544Y-67289960D01*
X117397375Y-67289533D01*
X117573317Y-67289252D01*
X117768576Y-67289089D01*
X117984357Y-67289015D01*
X118079100Y-67289003D01*
X118297307Y-67288992D01*
X118494497Y-67288966D01*
X118671871Y-67288878D01*
X118830636Y-67288683D01*
X118971993Y-67288336D01*
X119097147Y-67287792D01*
X119207303Y-67287005D01*
X119303663Y-67285931D01*
X119387432Y-67284522D01*
X119459813Y-67282735D01*
X119522010Y-67280524D01*
X119575228Y-67277843D01*
X119620670Y-67274648D01*
X119659539Y-67270892D01*
X119693040Y-67266531D01*
X119722377Y-67261519D01*
X119748754Y-67255811D01*
X119773373Y-67249362D01*
X119797440Y-67242126D01*
X119822158Y-67234057D01*
X119848730Y-67225111D01*
X119857979Y-67222003D01*
X120016401Y-67157641D01*
X120163682Y-67074289D01*
X120300592Y-66971464D01*
X120388888Y-66889442D01*
X120504984Y-66757338D01*
X120601653Y-66615208D01*
X120678544Y-66464426D01*
X120735306Y-66306366D01*
X120771587Y-66142403D01*
X120787035Y-65973910D01*
X120781299Y-65802263D01*
X120754027Y-65628834D01*
X120732927Y-65544444D01*
X120686388Y-65413329D01*
X120621264Y-65281537D01*
X120540502Y-65153885D01*
X120447051Y-65035186D01*
X120374182Y-64958565D01*
X120244261Y-64845976D01*
X120107379Y-64753480D01*
X119960592Y-64679318D01*
X119822222Y-64628239D01*
X119795935Y-64619981D01*
X119771442Y-64612488D01*
X119747598Y-64605726D01*
X119723259Y-64599658D01*
X119697282Y-64594251D01*
X119668524Y-64589469D01*
X119635840Y-64585278D01*
X119598088Y-64581643D01*
X119554122Y-64578529D01*
X119502801Y-64575901D01*
X119442979Y-64573725D01*
X119373514Y-64571965D01*
X119293262Y-64570587D01*
X119201079Y-64569556D01*
X119095822Y-64568837D01*
X118976347Y-64568395D01*
X118841510Y-64568196D01*
X118690168Y-64568205D01*
X118521177Y-64568386D01*
X118333393Y-64568705D01*
X118125673Y-64569128D01*
X117897137Y-64569618D01*
X117675017Y-64570107D01*
X117474002Y-64570585D01*
X117292977Y-64571068D01*
X117130825Y-64571570D01*
X116986431Y-64572108D01*
X116858677Y-64572697D01*
X116746447Y-64573351D01*
X116648625Y-64574087D01*
X116564095Y-64574919D01*
X116491740Y-64575863D01*
X116430444Y-64576934D01*
X116379091Y-64578147D01*
X116336564Y-64579518D01*
X116301747Y-64581063D01*
X116273524Y-64582796D01*
X116250779Y-64584732D01*
X116232394Y-64586887D01*
X116217254Y-64589277D01*
X116204243Y-64591917D01*
X116200000Y-64592899D01*
X116093679Y-64624079D01*
X115981341Y-64667375D01*
X115870230Y-64719424D01*
X115767592Y-64776864D01*
X115688888Y-64830062D01*
X115630960Y-64878145D01*
X115566710Y-64938830D01*
X115501704Y-65006247D01*
X115441512Y-65074530D01*
X115391699Y-65137811D01*
X115377067Y-65158703D01*
X115300759Y-65283673D01*
X115241809Y-65407112D01*
X115197189Y-65536336D01*
X115165565Y-65669838D01*
X115162384Y-65687036D01*
X115159540Y-65704925D01*
X115157015Y-65724779D01*
X115154792Y-65747868D01*
X115152852Y-65775463D01*
X115151178Y-65808837D01*
X115149751Y-65849259D01*
X115148554Y-65898003D01*
X115147569Y-65956339D01*
X115146777Y-66025539D01*
X115146162Y-66106874D01*
X115145704Y-66201615D01*
X115145385Y-66311034D01*
X115145189Y-66436403D01*
X115145097Y-66578993D01*
X115145091Y-66740075D01*
X114756858Y-66740075D01*
X114756928Y-66585136D01*
X114757131Y-66311115D01*
X114757421Y-66016355D01*
X114757797Y-65700295D01*
X114758086Y-65483333D01*
X114758517Y-65176259D01*
X114758935Y-64890607D01*
X114759345Y-64625578D01*
X114759754Y-64380373D01*
X114760168Y-64154190D01*
X114760592Y-63946232D01*
X114761032Y-63755698D01*
X114761447Y-63600000D01*
X115844444Y-63600000D01*
X116050000Y-63600000D01*
X116255555Y-63600000D01*
X117200000Y-63600000D01*
X117405555Y-63600000D01*
X117611111Y-63600000D01*
X118155555Y-63600000D01*
X118361111Y-63600000D01*
X118566666Y-63600000D01*
X118566666Y-63187300D01*
X118566666Y-62774601D01*
X118677530Y-62782236D01*
X118745832Y-62788161D01*
X118795678Y-62795921D01*
X118830822Y-62806774D01*
X118855024Y-62821977D01*
X118872040Y-62842789D01*
X118875291Y-62848426D01*
X118880718Y-62860793D01*
X118885169Y-62877663D01*
X118888807Y-62901475D01*
X118891789Y-62934667D01*
X118894277Y-62979677D01*
X118896430Y-63038944D01*
X118898409Y-63114905D01*
X118900373Y-63210000D01*
X118900914Y-63238888D01*
X118902564Y-63325389D01*
X118904173Y-63404461D01*
X118905682Y-63473447D01*
X118907026Y-63529692D01*
X118908144Y-63570538D01*
X118908974Y-63593329D01*
X118909293Y-63597222D01*
X118920422Y-63598105D01*
X118950249Y-63598873D01*
X118995250Y-63599479D01*
X119051902Y-63599874D01*
X119113888Y-63600010D01*
X119316666Y-63600021D01*
X119313893Y-63408344D01*
X119311218Y-63290444D01*
X119306818Y-63179801D01*
X119300899Y-63079130D01*
X119293669Y-62991142D01*
X119288306Y-62944444D01*
X119766666Y-62944444D01*
X119766859Y-63069444D01*
X119772894Y-63194093D01*
X119791025Y-63300704D01*
X119821911Y-63390289D01*
X119866210Y-63463863D01*
X119924583Y-63522441D01*
X119997686Y-63567036D01*
X120086181Y-63598662D01*
X120115272Y-63605652D01*
X120166250Y-63613318D01*
X120232338Y-63618379D01*
X120306569Y-63620744D01*
X120381973Y-63620323D01*
X120451583Y-63617028D01*
X120508429Y-63610769D01*
X120508740Y-63610719D01*
X120610876Y-63586377D01*
X120695398Y-63548832D01*
X120763220Y-63497143D01*
X120815262Y-63430370D01*
X120852439Y-63347572D01*
X120875669Y-63247807D01*
X120877909Y-63232065D01*
X120883179Y-63129110D01*
X120870031Y-63033505D01*
X120837622Y-62943202D01*
X120785112Y-62856153D01*
X120711659Y-62770309D01*
X120672664Y-62732554D01*
X120647611Y-62711220D01*
X120608387Y-62679954D01*
X120558886Y-62641761D01*
X120503003Y-62599649D01*
X120447429Y-62558662D01*
X120366931Y-62499298D01*
X120302937Y-62450333D01*
X120253462Y-62409834D01*
X120216521Y-62375873D01*
X120190129Y-62346518D01*
X120172302Y-62319839D01*
X120161053Y-62293904D01*
X120156046Y-62275228D01*
X120149028Y-62205907D01*
X120159811Y-62149121D01*
X120187721Y-62105791D01*
X120232081Y-62076837D01*
X120292216Y-62063181D01*
X120312421Y-62062214D01*
X120363662Y-62065785D01*
X120402762Y-62079532D01*
X120431120Y-62105649D01*
X120450139Y-62146329D01*
X120461218Y-62203766D01*
X120465759Y-62280156D01*
X120466039Y-62302777D01*
X120466666Y-62422222D01*
X120655555Y-62422222D01*
X120844444Y-62422222D01*
X120844312Y-62302777D01*
X120841249Y-62215005D01*
X120831381Y-62142460D01*
X120813363Y-62078831D01*
X120785852Y-62017804D01*
X120782228Y-62011051D01*
X120744126Y-61954661D01*
X120696403Y-61910241D01*
X120636293Y-61876345D01*
X120561032Y-61851523D01*
X120522676Y-61844444D01*
X121143692Y-61844444D01*
X121146846Y-61963888D01*
X121150000Y-62083333D01*
X121302777Y-62086424D01*
X121455555Y-62089515D01*
X121455555Y-62844757D01*
X121455555Y-63600000D01*
X121661111Y-63600000D01*
X121866666Y-63600000D01*
X121866666Y-62844444D01*
X121866666Y-62088888D01*
X122011111Y-62088888D01*
X122155555Y-62088888D01*
X122155555Y-61966666D01*
X122155555Y-61844444D01*
X121649624Y-61844444D01*
X121143692Y-61844444D01*
X120522676Y-61844444D01*
X120467855Y-61834326D01*
X120437931Y-61830652D01*
X120350166Y-61825221D01*
X120255195Y-61826766D01*
X120160882Y-61834713D01*
X120075093Y-61848488D01*
X120026100Y-61860751D01*
X119942846Y-61896076D01*
X119875324Y-61946870D01*
X119823877Y-62012566D01*
X119788851Y-62092598D01*
X119770591Y-62186401D01*
X119768815Y-62282884D01*
X119773181Y-62335302D01*
X119781565Y-62375699D01*
X119796638Y-62414236D01*
X119810586Y-62441784D01*
X119848478Y-62499808D01*
X119902362Y-62560920D01*
X119973490Y-62626278D01*
X120063113Y-62697042D01*
X120161143Y-62766666D01*
X120256096Y-62834110D01*
X120332142Y-62894220D01*
X120390809Y-62948386D01*
X120433630Y-62997998D01*
X120457933Y-63036143D01*
X120470805Y-63064749D01*
X120478502Y-63095396D01*
X120482217Y-63135052D01*
X120483142Y-63183333D01*
X120480489Y-63255547D01*
X120470803Y-63308711D01*
X120451967Y-63345446D01*
X120421863Y-63368373D01*
X120378373Y-63380113D01*
X120321599Y-63383293D01*
X120276550Y-63381690D01*
X120246999Y-63375964D01*
X120226380Y-63364648D01*
X120222206Y-63361097D01*
X120200561Y-63338859D01*
X120184629Y-63314476D01*
X120173408Y-63284015D01*
X120165893Y-63243542D01*
X120161080Y-63189121D01*
X120157965Y-63116820D01*
X120157705Y-63108333D01*
X120152805Y-62944444D01*
X119959736Y-62944444D01*
X119766666Y-62944444D01*
X119288306Y-62944444D01*
X119285332Y-62918553D01*
X119276094Y-62864075D01*
X119271082Y-62844072D01*
X119249263Y-62794409D01*
X119216461Y-62747912D01*
X119177620Y-62710011D01*
X119137680Y-62686136D01*
X119123493Y-62681920D01*
X119088471Y-62674916D01*
X119141538Y-62650330D01*
X119200236Y-62612809D01*
X119248070Y-62561935D01*
X119279379Y-62503730D01*
X119287305Y-62467322D01*
X119292523Y-62414443D01*
X119295097Y-62350668D01*
X119295091Y-62281575D01*
X119292570Y-62212741D01*
X119287598Y-62149743D01*
X119280238Y-62098157D01*
X119274441Y-62074145D01*
X119241265Y-62001188D01*
X119191127Y-61942382D01*
X119123899Y-61897628D01*
X119039454Y-61866830D01*
X118988160Y-61856212D01*
X118959604Y-61853393D01*
X118911993Y-61850823D01*
X118848496Y-61848584D01*
X118772278Y-61846758D01*
X118686508Y-61845426D01*
X118594352Y-61844671D01*
X118536111Y-61844528D01*
X118155555Y-61844444D01*
X118155555Y-62722222D01*
X118155555Y-63600000D01*
X117611111Y-63600000D01*
X117611111Y-62722222D01*
X117611111Y-61844444D01*
X117405555Y-61844444D01*
X117200000Y-61844444D01*
X117200000Y-62722222D01*
X117200000Y-63600000D01*
X116255555Y-63600000D01*
X116255555Y-63194444D01*
X116255555Y-62788888D01*
X116488888Y-62788888D01*
X116722222Y-62788888D01*
X116722222Y-62722222D01*
X116722222Y-62666666D01*
X116722222Y-62544444D01*
X116488888Y-62544444D01*
X116255555Y-62544444D01*
X116255555Y-62316666D01*
X116255555Y-62088888D01*
X116505555Y-62088888D01*
X116755555Y-62088888D01*
X116755555Y-61966666D01*
X116755555Y-61844444D01*
X116300000Y-61844444D01*
X115844444Y-61844444D01*
X115844444Y-62722222D01*
X115844444Y-63600000D01*
X114761447Y-63600000D01*
X114761496Y-63581789D01*
X114761988Y-63423705D01*
X114762515Y-63280645D01*
X114763083Y-63151812D01*
X114763698Y-63036404D01*
X114764366Y-62933623D01*
X114765093Y-62842668D01*
X114765885Y-62762740D01*
X114766387Y-62722222D01*
X114766748Y-62693039D01*
X114767688Y-62632766D01*
X114768711Y-62581121D01*
X114769824Y-62537304D01*
X114771032Y-62500516D01*
X114772341Y-62469956D01*
X114773758Y-62444826D01*
X114775288Y-62424326D01*
X114776937Y-62407655D01*
X114778712Y-62394015D01*
X114780618Y-62382605D01*
X114781563Y-62377777D01*
X114833960Y-62172112D01*
X114904528Y-61977693D01*
X114992757Y-61795402D01*
X115098138Y-61626119D01*
X115220161Y-61470727D01*
X115358317Y-61330106D01*
X115416666Y-61279287D01*
X115580582Y-61155760D01*
X115751060Y-61053153D01*
X115929138Y-60971054D01*
X116115852Y-60909054D01*
X116312237Y-60866742D01*
X116516666Y-60843880D01*
X116545138Y-60842775D01*
X116594544Y-60841736D01*
X116663592Y-60840763D01*
X116750994Y-60839857D01*
X116855461Y-60839017D01*
X116975703Y-60838242D01*
X117110431Y-60837534D01*
X117258355Y-60836892D01*
X117418186Y-60836317D01*
X117588635Y-60835807D01*
X117768411Y-60835363D01*
X117956227Y-60834986D01*
X118150792Y-60834674D01*
X118350817Y-60834429D01*
X118555012Y-60834250D01*
X118762089Y-60834137D01*
X118970758Y-60834090D01*
X119179729Y-60834109D01*
G37*
%TD.AperFunction*%
%TD*%
D11*
%TO.P,U1,1,~{RESET}/PB5*%
%TO.N,unconnected-(U1-~{RESET}{slash}PB5-Pad1)*%
X136190000Y-102805000D03*
D12*
%TO.P,U1,2,XTAL1/PB3*%
%TO.N,/MIC*%
X138730000Y-102805000D03*
%TO.P,U1,3,XTAL2/PB4*%
%TO.N,unconnected-(U1-XTAL2{slash}PB4-Pad3)*%
X141270000Y-102805000D03*
%TO.P,U1,4,GND*%
%TO.N,GND*%
X143810000Y-102805000D03*
%TO.P,U1,5,AREF/PB0*%
%TO.N,unconnected-(U1-AREF{slash}PB0-Pad5)*%
X143810000Y-95185000D03*
%TO.P,U1,6,PB1*%
%TO.N,/LDR*%
X141270000Y-95185000D03*
%TO.P,U1,7,PB2*%
%TO.N,/LED*%
X138730000Y-95185000D03*
%TO.P,U1,8,VCC*%
%TO.N,+3.3V*%
X136190000Y-95185000D03*
%TD*%
%TO.P,R3,1*%
%TO.N,+3.3V*%
X130380000Y-76500000D03*
%TO.P,R3,2*%
%TO.N,Net-(MK1-+)*%
X145620000Y-76500000D03*
%TD*%
D13*
%TO.P,MK1,1,-*%
%TO.N,GND*%
X148500000Y-87225000D03*
D14*
%TO.P,MK1,2,+*%
%TO.N,Net-(MK1-+)*%
X148500000Y-89765000D03*
%TD*%
D15*
%TO.P,SW1,*%
%TO.N,*%
X121400000Y-104500000D03*
X129600000Y-104500000D03*
D16*
%TO.P,SW1,1,A*%
%TO.N,unconnected-(SW1-A-Pad1)*%
X123500000Y-104500000D03*
D17*
%TO.P,SW1,2,B*%
%TO.N,GND*%
X125500000Y-104500000D03*
%TO.P,SW1,3,C*%
%TO.N,Net-(BT1--)*%
X127500000Y-104500000D03*
%TD*%
D18*
%TO.P,D1,1,K*%
%TO.N,Net-(D1-K)*%
X133730000Y-88500000D03*
D19*
%TO.P,D1,2,A*%
%TO.N,unconnected-(D1-A-Pad2)*%
X136270000Y-88500000D03*
%TD*%
D20*
%TO.P,BT1,1,+*%
%TO.N,+3.3V*%
X93710914Y-87000000D03*
D21*
%TO.P,BT1,2,-*%
%TO.N,Net-(BT1--)*%
X113710914Y-87000000D03*
%TD*%
D12*
%TO.P,R1,1*%
%TO.N,+3.3V*%
X130380000Y-72500000D03*
%TO.P,R1,2*%
%TO.N,Net-(R1-Pad2)*%
X145620000Y-72500000D03*
%TD*%
D22*
%TO.P,R2,1*%
%TO.N,Net-(R1-Pad2)*%
X140800000Y-88500000D03*
%TO.P,R2,2*%
%TO.N,GND*%
X144200000Y-88500000D03*
%TD*%
D12*
%TO.P,R4,1*%
%TO.N,Net-(D1-K)*%
X130380000Y-81100000D03*
%TO.P,R4,2*%
%TO.N,GND*%
X145620000Y-81100000D03*
%TD*%
D23*
%TO.N,+3.3V*%
X126500000Y-85495000D02*
X136190000Y-95185000D01*
X93710914Y-86500000D02*
X105746448Y-74464466D01*
X93710914Y-87000000D02*
X102196448Y-78514466D01*
X130380000Y-73000000D02*
X126500000Y-76880000D01*
X105731982Y-77050000D02*
X130380000Y-77050000D01*
X126500000Y-76880000D02*
X126500000Y-85495000D01*
X109281982Y-73000000D02*
X130380000Y-73000000D01*
X105746448Y-74464466D02*
G75*
G02*
X109281982Y-72999987I3535552J-3535534D01*
G01*
X102196448Y-78514466D02*
G75*
G02*
X105731982Y-77049987I3535552J-3535534D01*
G01*
%TO.N,Net-(D1-K)*%
X130380000Y-81380000D02*
X130500000Y-81500000D01*
X130380000Y-81100000D02*
X130380000Y-81380000D01*
X130380000Y-81100000D02*
X130380000Y-85150000D01*
X130380000Y-85150000D02*
X133730000Y-88500000D01*
X130500000Y-81500000D02*
X130500000Y-81000000D01*
%TO.N,Net-(MK1-+)*%
X150000000Y-88265000D02*
X148500000Y-89765000D01*
X150000000Y-81430000D02*
X150000000Y-88265000D01*
X145620000Y-77050000D02*
X150000000Y-81430000D01*
%TO.N,GND*%
X145475000Y-87225000D02*
X148500000Y-87225000D01*
X145620000Y-81100000D02*
X145620000Y-81120000D01*
X127551000Y-106551000D02*
X125500000Y-104500000D01*
X145620000Y-84345000D02*
X148500000Y-87225000D01*
X141115000Y-105500000D02*
X143810000Y-102805000D01*
X144911000Y-89211000D02*
X144200000Y-88500000D01*
X145620000Y-81100000D02*
X145900000Y-81100000D01*
X145620000Y-81120000D02*
X146000000Y-81500000D01*
X148500000Y-87225000D02*
X148500000Y-87000000D01*
X144200000Y-88500000D02*
X144000000Y-88500000D01*
X145900000Y-81100000D02*
X146000000Y-81000000D01*
X144200000Y-88500000D02*
X145475000Y-87225000D01*
X145620000Y-81100000D02*
X145620000Y-84345000D01*
X143810000Y-102805000D02*
X144911000Y-101704000D01*
X134500000Y-105500000D02*
X141115000Y-105500000D01*
X133449000Y-106551000D02*
X127551000Y-106551000D01*
X146000000Y-81000000D02*
X145500000Y-81000000D01*
X144911000Y-101704000D02*
X144911000Y-89211000D01*
X134500000Y-105500000D02*
X133449000Y-106551000D01*
%TO.N,Net-(R1-Pad2)*%
X145620000Y-73000000D02*
X140800000Y-77820000D01*
X140800000Y-77820000D02*
X140800000Y-88500000D01*
D24*
%TO.N,/LED*%
X138730000Y-95185000D02*
X139045000Y-95500000D01*
D23*
%TO.N,unconnected-(U1-AREF{slash}PB0-Pad5)*%
X143810000Y-95185000D02*
X143810000Y-95190000D01*
X143810000Y-95190000D02*
X143500000Y-95500000D01*
%TD*%
M02*
