%TF.GenerationSoftware,KiCad,Pcbnew,9.0.2*%
%TF.CreationDate,2025-06-18T20:19:25+05:30*%
%TF.ProjectId,redesign diya,72656465-7369-4676-9e20-646979612e6b,rev?*%
%TF.SameCoordinates,Original*%
%TF.FileFunction,Legend,Top*%
%TF.FilePolarity,Positive*%
%FSLAX46Y46*%
G04 Gerber Fmt 4.6, Leading zero omitted, Abs format (unit mm)*
G04 Created by KiCad (PCBNEW 9.0.2) date 2025-06-18 20:19:25*
%MOMM*%
%LPD*%
G01*
G04 APERTURE LIST*
%ADD10C,0.100000*%
%ADD11C,0.150000*%
%ADD12C,0.300000*%
%ADD13C,0.120000*%
G04 APERTURE END LIST*
D10*
X113000000Y-59500000D02*
X129500000Y-59500000D01*
X129500000Y-71000000D01*
X113000000Y-71000000D01*
X113000000Y-59500000D01*
D11*
X133314819Y-99756904D02*
X134124342Y-99756904D01*
X134124342Y-99756904D02*
X134219580Y-99709285D01*
X134219580Y-99709285D02*
X134267200Y-99661666D01*
X134267200Y-99661666D02*
X134314819Y-99566428D01*
X134314819Y-99566428D02*
X134314819Y-99375952D01*
X134314819Y-99375952D02*
X134267200Y-99280714D01*
X134267200Y-99280714D02*
X134219580Y-99233095D01*
X134219580Y-99233095D02*
X134124342Y-99185476D01*
X134124342Y-99185476D02*
X133314819Y-99185476D01*
X134314819Y-98185476D02*
X134314819Y-98756904D01*
X134314819Y-98471190D02*
X133314819Y-98471190D01*
X133314819Y-98471190D02*
X133457676Y-98566428D01*
X133457676Y-98566428D02*
X133552914Y-98661666D01*
X133552914Y-98661666D02*
X133600533Y-98756904D01*
X124333333Y-80904819D02*
X124000000Y-80428628D01*
X123761905Y-80904819D02*
X123761905Y-79904819D01*
X123761905Y-79904819D02*
X124142857Y-79904819D01*
X124142857Y-79904819D02*
X124238095Y-79952438D01*
X124238095Y-79952438D02*
X124285714Y-80000057D01*
X124285714Y-80000057D02*
X124333333Y-80095295D01*
X124333333Y-80095295D02*
X124333333Y-80238152D01*
X124333333Y-80238152D02*
X124285714Y-80333390D01*
X124285714Y-80333390D02*
X124238095Y-80381009D01*
X124238095Y-80381009D02*
X124142857Y-80428628D01*
X124142857Y-80428628D02*
X123761905Y-80428628D01*
X124666667Y-79904819D02*
X125285714Y-79904819D01*
X125285714Y-79904819D02*
X124952381Y-80285771D01*
X124952381Y-80285771D02*
X125095238Y-80285771D01*
X125095238Y-80285771D02*
X125190476Y-80333390D01*
X125190476Y-80333390D02*
X125238095Y-80381009D01*
X125238095Y-80381009D02*
X125285714Y-80476247D01*
X125285714Y-80476247D02*
X125285714Y-80714342D01*
X125285714Y-80714342D02*
X125238095Y-80809580D01*
X125238095Y-80809580D02*
X125190476Y-80857200D01*
X125190476Y-80857200D02*
X125095238Y-80904819D01*
X125095238Y-80904819D02*
X124809524Y-80904819D01*
X124809524Y-80904819D02*
X124714286Y-80857200D01*
X124714286Y-80857200D02*
X124666667Y-80809580D01*
D12*
X122214286Y-65749757D02*
X122928572Y-65749757D01*
X122071429Y-66178328D02*
X122571429Y-64678328D01*
X122571429Y-64678328D02*
X123071429Y-66178328D01*
X123571428Y-65178328D02*
X123571428Y-66178328D01*
X123571428Y-65321185D02*
X123642857Y-65249757D01*
X123642857Y-65249757D02*
X123785714Y-65178328D01*
X123785714Y-65178328D02*
X124000000Y-65178328D01*
X124000000Y-65178328D02*
X124142857Y-65249757D01*
X124142857Y-65249757D02*
X124214286Y-65392614D01*
X124214286Y-65392614D02*
X124214286Y-66178328D01*
X124928571Y-66178328D02*
X124928571Y-64678328D01*
X125071429Y-65606900D02*
X125500000Y-66178328D01*
X125500000Y-65178328D02*
X124928571Y-65749757D01*
X126785715Y-65178328D02*
X126785715Y-66178328D01*
X126142857Y-65178328D02*
X126142857Y-65964042D01*
X126142857Y-65964042D02*
X126214286Y-66106900D01*
X126214286Y-66106900D02*
X126357143Y-66178328D01*
X126357143Y-66178328D02*
X126571429Y-66178328D01*
X126571429Y-66178328D02*
X126714286Y-66106900D01*
X126714286Y-66106900D02*
X126785715Y-66035471D01*
X127500000Y-66178328D02*
X127500000Y-65178328D01*
X127500000Y-65464042D02*
X127571429Y-65321185D01*
X127571429Y-65321185D02*
X127642858Y-65249757D01*
X127642858Y-65249757D02*
X127785715Y-65178328D01*
X127785715Y-65178328D02*
X127928572Y-65178328D01*
D11*
X147190476Y-85299819D02*
X147190476Y-84299819D01*
X147190476Y-84299819D02*
X147523809Y-85014104D01*
X147523809Y-85014104D02*
X147857142Y-84299819D01*
X147857142Y-84299819D02*
X147857142Y-85299819D01*
X148333333Y-85299819D02*
X148333333Y-84299819D01*
X148904761Y-85299819D02*
X148476190Y-84728390D01*
X148904761Y-84299819D02*
X148333333Y-84871247D01*
X149857142Y-85299819D02*
X149285714Y-85299819D01*
X149571428Y-85299819D02*
X149571428Y-84299819D01*
X149571428Y-84299819D02*
X149476190Y-84442676D01*
X149476190Y-84442676D02*
X149380952Y-84537914D01*
X149380952Y-84537914D02*
X149285714Y-84585533D01*
X123566667Y-101307200D02*
X123709524Y-101354819D01*
X123709524Y-101354819D02*
X123947619Y-101354819D01*
X123947619Y-101354819D02*
X124042857Y-101307200D01*
X124042857Y-101307200D02*
X124090476Y-101259580D01*
X124090476Y-101259580D02*
X124138095Y-101164342D01*
X124138095Y-101164342D02*
X124138095Y-101069104D01*
X124138095Y-101069104D02*
X124090476Y-100973866D01*
X124090476Y-100973866D02*
X124042857Y-100926247D01*
X124042857Y-100926247D02*
X123947619Y-100878628D01*
X123947619Y-100878628D02*
X123757143Y-100831009D01*
X123757143Y-100831009D02*
X123661905Y-100783390D01*
X123661905Y-100783390D02*
X123614286Y-100735771D01*
X123614286Y-100735771D02*
X123566667Y-100640533D01*
X123566667Y-100640533D02*
X123566667Y-100545295D01*
X123566667Y-100545295D02*
X123614286Y-100450057D01*
X123614286Y-100450057D02*
X123661905Y-100402438D01*
X123661905Y-100402438D02*
X123757143Y-100354819D01*
X123757143Y-100354819D02*
X123995238Y-100354819D01*
X123995238Y-100354819D02*
X124138095Y-100402438D01*
X124471429Y-100354819D02*
X124709524Y-101354819D01*
X124709524Y-101354819D02*
X124900000Y-100640533D01*
X124900000Y-100640533D02*
X125090476Y-101354819D01*
X125090476Y-101354819D02*
X125328572Y-100354819D01*
X126233333Y-101354819D02*
X125661905Y-101354819D01*
X125947619Y-101354819D02*
X125947619Y-100354819D01*
X125947619Y-100354819D02*
X125852381Y-100497676D01*
X125852381Y-100497676D02*
X125757143Y-100592914D01*
X125757143Y-100592914D02*
X125661905Y-100640533D01*
X134261905Y-85994819D02*
X134261905Y-84994819D01*
X134261905Y-84994819D02*
X134500000Y-84994819D01*
X134500000Y-84994819D02*
X134642857Y-85042438D01*
X134642857Y-85042438D02*
X134738095Y-85137676D01*
X134738095Y-85137676D02*
X134785714Y-85232914D01*
X134785714Y-85232914D02*
X134833333Y-85423390D01*
X134833333Y-85423390D02*
X134833333Y-85566247D01*
X134833333Y-85566247D02*
X134785714Y-85756723D01*
X134785714Y-85756723D02*
X134738095Y-85851961D01*
X134738095Y-85851961D02*
X134642857Y-85947200D01*
X134642857Y-85947200D02*
X134500000Y-85994819D01*
X134500000Y-85994819D02*
X134261905Y-85994819D01*
X135785714Y-85994819D02*
X135214286Y-85994819D01*
X135500000Y-85994819D02*
X135500000Y-84994819D01*
X135500000Y-84994819D02*
X135404762Y-85137676D01*
X135404762Y-85137676D02*
X135309524Y-85232914D01*
X135309524Y-85232914D02*
X135214286Y-85280533D01*
X93025199Y-80311009D02*
X93168056Y-80358628D01*
X93168056Y-80358628D02*
X93215675Y-80406247D01*
X93215675Y-80406247D02*
X93263294Y-80501485D01*
X93263294Y-80501485D02*
X93263294Y-80644342D01*
X93263294Y-80644342D02*
X93215675Y-80739580D01*
X93215675Y-80739580D02*
X93168056Y-80787200D01*
X93168056Y-80787200D02*
X93072818Y-80834819D01*
X93072818Y-80834819D02*
X92691866Y-80834819D01*
X92691866Y-80834819D02*
X92691866Y-79834819D01*
X92691866Y-79834819D02*
X93025199Y-79834819D01*
X93025199Y-79834819D02*
X93120437Y-79882438D01*
X93120437Y-79882438D02*
X93168056Y-79930057D01*
X93168056Y-79930057D02*
X93215675Y-80025295D01*
X93215675Y-80025295D02*
X93215675Y-80120533D01*
X93215675Y-80120533D02*
X93168056Y-80215771D01*
X93168056Y-80215771D02*
X93120437Y-80263390D01*
X93120437Y-80263390D02*
X93025199Y-80311009D01*
X93025199Y-80311009D02*
X92691866Y-80311009D01*
X93549009Y-79834819D02*
X94120437Y-79834819D01*
X93834723Y-80834819D02*
X93834723Y-79834819D01*
X94977580Y-80834819D02*
X94406152Y-80834819D01*
X94691866Y-80834819D02*
X94691866Y-79834819D01*
X94691866Y-79834819D02*
X94596628Y-79977676D01*
X94596628Y-79977676D02*
X94501390Y-80072914D01*
X94501390Y-80072914D02*
X94406152Y-80120533D01*
X137833333Y-70584819D02*
X137500000Y-70108628D01*
X137261905Y-70584819D02*
X137261905Y-69584819D01*
X137261905Y-69584819D02*
X137642857Y-69584819D01*
X137642857Y-69584819D02*
X137738095Y-69632438D01*
X137738095Y-69632438D02*
X137785714Y-69680057D01*
X137785714Y-69680057D02*
X137833333Y-69775295D01*
X137833333Y-69775295D02*
X137833333Y-69918152D01*
X137833333Y-69918152D02*
X137785714Y-70013390D01*
X137785714Y-70013390D02*
X137738095Y-70061009D01*
X137738095Y-70061009D02*
X137642857Y-70108628D01*
X137642857Y-70108628D02*
X137261905Y-70108628D01*
X138785714Y-70584819D02*
X138214286Y-70584819D01*
X138500000Y-70584819D02*
X138500000Y-69584819D01*
X138500000Y-69584819D02*
X138404762Y-69727676D01*
X138404762Y-69727676D02*
X138309524Y-69822914D01*
X138309524Y-69822914D02*
X138214286Y-69870533D01*
X142333333Y-86054819D02*
X142000000Y-85578628D01*
X141761905Y-86054819D02*
X141761905Y-85054819D01*
X141761905Y-85054819D02*
X142142857Y-85054819D01*
X142142857Y-85054819D02*
X142238095Y-85102438D01*
X142238095Y-85102438D02*
X142285714Y-85150057D01*
X142285714Y-85150057D02*
X142333333Y-85245295D01*
X142333333Y-85245295D02*
X142333333Y-85388152D01*
X142333333Y-85388152D02*
X142285714Y-85483390D01*
X142285714Y-85483390D02*
X142238095Y-85531009D01*
X142238095Y-85531009D02*
X142142857Y-85578628D01*
X142142857Y-85578628D02*
X141761905Y-85578628D01*
X142714286Y-85150057D02*
X142761905Y-85102438D01*
X142761905Y-85102438D02*
X142857143Y-85054819D01*
X142857143Y-85054819D02*
X143095238Y-85054819D01*
X143095238Y-85054819D02*
X143190476Y-85102438D01*
X143190476Y-85102438D02*
X143238095Y-85150057D01*
X143238095Y-85150057D02*
X143285714Y-85245295D01*
X143285714Y-85245295D02*
X143285714Y-85340533D01*
X143285714Y-85340533D02*
X143238095Y-85483390D01*
X143238095Y-85483390D02*
X142666667Y-86054819D01*
X142666667Y-86054819D02*
X143285714Y-86054819D01*
X137833333Y-79184819D02*
X137500000Y-78708628D01*
X137261905Y-79184819D02*
X137261905Y-78184819D01*
X137261905Y-78184819D02*
X137642857Y-78184819D01*
X137642857Y-78184819D02*
X137738095Y-78232438D01*
X137738095Y-78232438D02*
X137785714Y-78280057D01*
X137785714Y-78280057D02*
X137833333Y-78375295D01*
X137833333Y-78375295D02*
X137833333Y-78518152D01*
X137833333Y-78518152D02*
X137785714Y-78613390D01*
X137785714Y-78613390D02*
X137738095Y-78661009D01*
X137738095Y-78661009D02*
X137642857Y-78708628D01*
X137642857Y-78708628D02*
X137261905Y-78708628D01*
X138690476Y-78518152D02*
X138690476Y-79184819D01*
X138452381Y-78137200D02*
X138214286Y-78851485D01*
X138214286Y-78851485D02*
X138833333Y-78851485D01*
D13*
%TO.C,U1*%
X134860000Y-96345000D02*
X134860000Y-97995000D01*
X134860000Y-99995000D02*
X134860000Y-101645000D01*
X134860000Y-101645000D02*
X145140000Y-101645000D01*
X145140000Y-96345000D02*
X134860000Y-96345000D01*
X145140000Y-101645000D02*
X145140000Y-96345000D01*
X134860000Y-97995000D02*
G75*
G02*
X134860000Y-99995000I0J-1000000D01*
G01*
%TO.C,R3*%
X131420000Y-76500000D02*
X134730000Y-76500000D01*
X144580000Y-76500000D02*
X141270000Y-76500000D01*
X134730000Y-75130000D02*
X141270000Y-75130000D01*
X141270000Y-77870000D01*
X134730000Y-77870000D01*
X134730000Y-75130000D01*
%TO.C,MK1*%
X147120000Y-85845000D02*
X148500000Y-85845000D01*
X147120000Y-87225000D02*
X147120000Y-85845000D01*
X147120000Y-88495000D02*
X147120000Y-91145000D01*
X147120000Y-88495000D02*
X149880000Y-88495000D01*
X147120000Y-91145000D02*
X149880000Y-91145000D01*
X149880000Y-88495000D02*
X149880000Y-91145000D01*
%TO.C,SW1*%
X121200000Y-102200000D02*
X129800000Y-102200000D01*
X121200000Y-106800000D02*
X123400000Y-106800000D01*
X127500000Y-106800000D02*
X129800000Y-106800000D01*
%TO.C,D1*%
X133440000Y-87264000D02*
X133440000Y-87420000D01*
X133440000Y-89580000D02*
X133440000Y-89736000D01*
X133440000Y-87264484D02*
G75*
G02*
X136671437Y-87420000I1560000J-1235516D01*
G01*
X133959039Y-87420000D02*
G75*
G02*
X136040961Y-87420000I1040961J-1080000D01*
G01*
X136040961Y-89580000D02*
G75*
G02*
X133959039Y-89580000I-1040961J1080000D01*
G01*
X136671437Y-89580000D02*
G75*
G02*
X133440000Y-89735516I-1671437J1080000D01*
G01*
%TO.C,BT1*%
X92380914Y-81390000D02*
X95555914Y-81390000D01*
X92380914Y-92610000D02*
X92380914Y-81390000D01*
X95555914Y-92610000D02*
X92380914Y-92610000D01*
X95555914Y-81390000D02*
G75*
G02*
X95555914Y-92610000I12435000J-5610000D01*
G01*
%TO.C,R1*%
X131420000Y-72500000D02*
X134730000Y-72500000D01*
X144580000Y-72500000D02*
X141270000Y-72500000D01*
X134730000Y-71130000D02*
X141270000Y-71130000D01*
X141270000Y-73870000D01*
X134730000Y-73870000D01*
X134730000Y-71130000D01*
%TO.C,R2*%
X140950000Y-86350000D02*
X144000000Y-86350000D01*
X140950000Y-90650000D02*
X144000000Y-90650000D01*
X140950000Y-90650000D02*
G75*
G02*
X140971766Y-86334475I1550000J2150000D01*
G01*
X144000000Y-86350000D02*
G75*
G02*
X144044513Y-90618249I-1500000J-2150000D01*
G01*
%TO.C,R4*%
X131420000Y-81100000D02*
X134730000Y-81100000D01*
X144580000Y-81100000D02*
X141270000Y-81100000D01*
X134730000Y-79730000D02*
X141270000Y-79730000D01*
X141270000Y-82470000D01*
X134730000Y-82470000D01*
X134730000Y-79730000D01*
%TD*%
M02*
